# xmcd
#
# Track frame offsets:
#	183
#	18188
#	37188
#	47275
#	62678
#	85293
#	103345
#	124435
#	136743
#	145918
#
# Disc length: 2093 seconds
# Revision: 5
# Processed by: cddbd v1.5.2PL0 Copyright (c) Steve Scherf et al.
# Submitted via: dBpowerAMP V12.0
#
DISCID=89082b0a
DTITLE=Hank Williams, Jr. - Montana Cafe
DYEAR=1986
DGENRE=Country
TTITLE0=Country State of Mind
TTITLE1=Montana Cafe
TTITLE2=My Girl Don't Like My Cowboy Hat
TTITLE3=When Something Is Good (Why Does It Change)
TTITLE4=Medley: Harvest Moon/St. Louis Blues
TTITLE5=You Can't Judge a Book (By Looking at the Cover)
TTITLE6=My Name Is Bocephus
TTITLE7=Loving Instructor
TTITLE8=Fat Friends
TTITLE9=Mind Your Own Business
EXTD=
EXTT0=
EXTT1=
EXTT2=
EXTT3=
EXTT4=
EXTT5=
EXTT6=
EXTT7=
EXTT8=
EXTT9=
PLAYORDER=
